<svg width="1609.0000000000002" height="27" xmlns="http://www.w3.org/2000/svg">
 <!-- Created with Method Draw - http://github.com/duopixel/Method-Draw/ -->
 <g>
  <title>background</title>
  <rect fill="none" id="canvas_background" height="29" width="1611" y="-1" x="-1"/>
  <g display="none" overflow="visible" y="0" x="0" height="100%" width="100%" id="canvasGrid">
   <rect fill="url(#gridpattern)" stroke-width="0" y="0" x="0" height="100%" width="100%"/>
  </g>
 </g>
 <g>
  <title>Layer 1</title>
  <text font-style="italic" font-weight="bold" xml:space="preserve" text-anchor="start" font-family="'Courier New', Courier, monospace" font-size="24" id="svg_1" y="20" x="25.213881" stroke-width="0" stroke="#000" fill="#FFB27C">Warning: May not work with every router. Router must be enabled with access to Universal Plug and Play (UPNP).</text>
  <path stroke="#000" id="svg_2" d="m18.759618,17.88448l-2.428196,-3.93854c-0.732092,-1.187066 -1.929529,-3.130387 -2.661626,-4.317682l-2.427969,-3.938301c-0.732819,-1.187762 -1.930255,-1.187762 -2.662104,0l-2.427478,3.938301c-0.732092,1.187295 -1.930259,3.131069 -2.66211,4.317682l-2.427725,3.93854c-0.732091,1.188211 -0.132882,2.15941 1.331058,2.15941l15.033641,0c1.465401,0 2.063868,-0.9712 1.332509,-2.15941l0.000001,0zm-8.155488,0.609716l-1.440156,0l0,-1.294998l1.440156,0l0,1.294998zm-0.069383,-2.249202l-1.30016,0l-0.129209,-5.540818l1.547049,0l-0.117679,5.540818l-0.000001,0z" stroke-width="1.5" fill="#FFB27C"/>
 </g>
</svg>